# xmcd
#
# Track frame offsets:
#	150
#	11252
#	29212
#	40105
#	54272
#	73605
#	100767
#	117660
#	137472
#	155392
#	175527
#	188072
#	203127
#
# Disc length: 2896
#
# Revision: 2
# Processed by: cddbd v1.5.1PL0 Copyright (c) Steve Scherf et al.
# Submitted via: EasyCDDAExtractor 6.0.0.1
# Normalized: r1:DSETVAR1
#
DISCID=a50b4e0d
DTITLE=Various Artist - Canta MPB
DYEAR=1900
DGENRE=MPB
TTITLE0=Chico Buarque - Luiza
TTITLE1=Gal Costa - Coisa Mais Linda
TTITLE2=Toquinho - Corcovado
TTITLE3=Elba Ramalho - Terremoto
TTITLE4=Alceu Valença - Ponteio
TTITLE5=Fagner - Viola Enluarada
TTITLE6=Ana Carolina - Eu Te Amo
TTITLE7=Lobão - Tempo Rei
TTITLE8=Sandra de Sá - Sina
TTITLE9=Daúde - Sim e Não
TTITLE10=Nelson Gonçalves - Pra Esquecer
TTITLE11=Maria Bethânia - Até Pensei
TTITLE12=Paulinho da Viola - Felicidade Vem Depois
EXTD=
EXTT0=
EXTT1=
EXTT2=
EXTT3=
EXTT4=
EXTT5=
EXTT6=
EXTT7=
EXTT8=
EXTT9=
EXTT10=
EXTT11=
EXTT12=
PLAYORDER=
